<svg xmlns="http://www.w3.org/2000/svg" viewBox="0 0 120 120" width="120" height="120">
  <defs>
    <linearGradient id="bg" x1="0%" y1="0%" x2="100%" y2="100%">
      <stop offset="0%" stop-color="#6366f1"/>
      <stop offset="100%" stop-color="#8b5cf6"/>
    </linearGradient>
    <linearGradient id="ring" x1="0%" y1="0%" x2="100%" y2="100%">
      <stop offset="0%" stop-color="#c4b5fd"/>
      <stop offset="100%" stop-color="#a78bfa"/>
    </linearGradient>
  </defs>
  <!-- Background circle -->
  <circle cx="60" cy="60" r="56" fill="url(#bg)"/>
  <!-- Outer ring -->
  <circle cx="60" cy="60" r="48" fill="none" stroke="url(#ring)" stroke-width="2.5" opacity="0.6"/>
  <!-- Compass/autopilot crosshair -->
  <line x1="60" y1="20" x2="60" y2="38" stroke="#e0e7ff" stroke-width="2.5" stroke-linecap="round"/>
  <line x1="60" y1="82" x2="60" y2="100" stroke="#e0e7ff" stroke-width="2.5" stroke-linecap="round"/>
  <line x1="20" y1="60" x2="38" y2="60" stroke="#e0e7ff" stroke-width="2.5" stroke-linecap="round"/>
  <line x1="82" y1="60" x2="100" y2="60" stroke="#e0e7ff" stroke-width="2.5" stroke-linecap="round"/>
  <!-- Center diamond (autopilot indicator) -->
  <polygon points="60,42 72,60 60,78 48,60" fill="none" stroke="#fff" stroke-width="2.5" stroke-linejoin="round"/>
  <!-- Inner direction arrow (north pointer) -->
  <polygon points="60,42 54,58 60,54 66,58" fill="#fff" opacity="0.95"/>
  <!-- Code brackets -->
  <text x="34" y="64" font-family="monospace" font-size="18" font-weight="bold" fill="#c4b5fd" opacity="0.7">&lt;</text>
  <text x="78" y="64" font-family="monospace" font-size="18" font-weight="bold" fill="#c4b5fd" opacity="0.7">/&gt;</text>
  <!-- Orbital dots (agent indicators) -->
  <circle cx="60" cy="14" r="3" fill="#a78bfa"/>
  <circle cx="100" cy="40" r="2.5" fill="#c4b5fd"/>
  <circle cx="100" cy="80" r="2.5" fill="#c4b5fd"/>
  <circle cx="60" cy="106" r="3" fill="#a78bfa"/>
  <circle cx="20" cy="80" r="2.5" fill="#c4b5fd"/>
  <circle cx="20" cy="40" r="2.5" fill="#c4b5fd"/>
</svg>
